<svg xmlns="http://www.w3.org/2000/svg" viewBox="0 0 658 727" fill="none"><defs><linearGradient id="dinoGold" x1="40" y1="40" x2="620" y2="700" gradientUnits="userSpaceOnUse"><stop stop-color="#f3dd9a"/><stop offset="0.5" stop-color="#c9a24b"/><stop offset="1" stop-color="#9c7530"/></linearGradient></defs>
<path d="M0 0 C2.3607236298636565 -0.0046383721306102466 4.721446524701975 -0.009664370159774283 7.0821685791015625 -0.015045166015625 C13.45232955337599 -0.028070421936452927 19.82248003913122 -0.03459430088710347 26.192652225494385 -0.039055824279785156 C30.18433278278343 -0.04200174188125816 34.176011235916974 -0.04607871568112554 38.16769027709961 -0.05055999755859375 C49.26182718016844 -0.06273350159583524 60.35596223655918 -0.07303837152923176 71.45010566711426 -0.07643508911132813 C72.15713890068233 -0.07665465518832226 72.8641721342504 -0.07687422126531596 73.59263061732054 -0.07710044085979462 C74.30115327216686 -0.07731871858239181 75.00967592701315 -0.077536996304989 75.73966896533966 -0.07776188850402832 C77.17491602994488 -0.07820532300436911 78.61016309358689 -0.07865188597822925 80.04541015625 -0.0791015625 C80.40136042408645 -0.07921227738261205 80.40136042408645 -0.07921227738261205 82.20268450677395 -0.07977256178855896 C93.72635060241768 -0.0837169324662308 105.24995333989995 -0.10116858856326028 116.77359499037266 -0.1244610846042633 C128.6596806687979 -0.14828865099589406 140.54573468380232 -0.16064199366155218 152.43184459209442 -0.1618030071258545 C159.08340873913966 -0.16271309203610773 165.73490124866578 -0.16862419138561524 172.38644790649414 -0.18662261962890625 C178.64929529005224 -0.2032425766872974 184.91198681888267 -0.20519202767142497 191.17484855651855 -0.19648361206054688 C193.45545688570803 -0.19572071595441187 195.73607409823097 -0.1999554122376339 198.01666069030762 -0.20994186401367188 C218.17212736809057 -0.29292953417694756 237.08521815545873 1.4893934795201353 256.37841796875 7.4853515625 C260.81359341893983 8.805985773852523 265.2801598647098 9.910725986198957 269.79248046875 10.9306640625 C270.4519467163086 11.080124816894532 271.11141296386717 11.229585571289062 271.7908630371094 11.383575439453125 C275.0479833403355 12.117530445529663 278.3075304619096 12.835220461067882 281.57177734375 13.537109375 C289.5664579832059 15.31915911711043 296.7493881053175 17.84855592545452 304.22607421875 21.1611328125 C306.91922360101097 22.224332294700986 309.6332371841662 23.225559049444417 312.35107421875 24.2236328125 C313.72228160261056 24.737652699609313 315.0933756980653 25.25197489949961 316.46435546875 25.7666015625 C318.6630768923247 26.58790318570918 320.86308040586727 27.381601438137036 323.08154296875 28.1494140625 C327.7850358164718 29.846859017083233 331.33716486497724 31.89177012789579 335.28857421875 34.9736328125 C339.855635767163 38.47483134042058 344.27827094682857 40.57550723137719 349.60107421875 42.5986328125 C356.603915738092 45.2733023849609 362.20916043636385 48.58455766182387 368.22216796875 53.0322265625 C371.1164461139186 55.083437991780734 374.0010924060412 56.68999461631455 377.16357421875 58.2861328125 C381.30652410924733 60.45851054877798 383.6012433171299 62.523603438820714 386.39794921875 66.1962890625 C388.8811983198585 68.86525123740938 391.7952519748403 70.80304838580021 394.78857421875 72.8486328125 C404.66076986048427 79.65989628598707 413.4798138926077 87.34697256167054 420.55419921875 97.0830078125 C423.03398346955476 100.16535646069656 426.0204100882005 102.55987817065424 429.02294921875 105.1181640625 C431.97599290348126 107.85653613185183 434.28863706610866 110.91782710467072 436.67529296875 114.1494140625 C438.2260742187499 116.16113281249986 438.2260742187499 116.16113281249986 440.78857421875 118.5361328125 C443.18802300646337 121.12015458388365 444.31142190599826 123.21230402726508 445.85107421875 126.3486328125 C448.807664707802 132.04083151178307 452.64105903119014 135.48872854920162 457.47607421875 139.6142578125 C461.024469836678 142.90055602683108 463.6648340244586 146.53358116098767 466.37451171875 150.5205078125 C468.2260742187499 153.16113281249983 468.2260742187499 153.16113281249983 470.71435546875 155.9462890625 C473.745655635793 159.52758649469962 475.298157822736 163.53299935477833 477.03857421875 167.8486328125 C479.2857318615762 173.17351205385796 481.47622208084135 177.91876810587536 485.10107421875 182.4736328125 C490.8487555307571 189.78269211871375 494.2697941539618 198.39418859508152 498.11572265625 206.796875 C499.46314130774795 209.66591682522122 500.96131178953374 212.43995944781463 502.47607421875 215.2236328125 C505.4580684746819 221.07903329823742 507.11996732075534 227.21959392771413 508.900146484375 233.5166015625 C510.89405928807366 240.432478032136 513.5201432834334 246.7990294930883 516.61279296875 253.2900390625 C521.2218286683571 263.757738534346 522.4766798089463 275.20193026965484 524.16357421875 286.4111328125 C524.6838793790595 289.8061494786762 525.208712761991 293.20046006211504 525.73388671875 296.5947265625 C525.8616297912598 297.42381027221677 525.9893728637695 298.2528939819336 526.1209869384766 299.1071014404297 C527.3113356602828 306.79801483969857 528.6262798773353 314.4645594766513 530.020751953125 322.12109375 C535.6613065419039 353.47475437006966 530.3554729147291 385.52607049016643 525.2793731689453 416.60841369628906 C524.4437632636278 421.74021726887764 523.688486117915 426.877500355231 522.99072265625 432.030029296875 C520.9133501275625 447.1498906941056 516.8028167886614 461.2216670959047 511.16650390625 475.386474609375 C508.95778907413273 480.99916599249525 507.23818240135085 486.5610422454089 505.78857421875 492.4111328125 C503.77787806752497 500.34974987626117 500.4180808346167 507.02065733360877 496.41748046875 514.1298828125 C494.3651570999058 517.8018160443373 492.77858162155894 521.5017548399671 491.22607421875 525.4111328125 C488.72471201456904 531.4681503813019 485.4357801103739 536.3869848033445 481.58544921875 541.6650390625 C478.86301321709595 545.5360730631991 476.78908270163424 549.6922787507093 474.66357421875 553.9111328125 C471.7079394999853 559.7364900911758 468.6355154099383 564.4356246242756 464.04248046875 569.1455078125 C462.1316478926958 571.2659155743149 460.8557276843884 573.3547985597427 459.47607421875 575.8486328125 C456.0886162250712 581.806846598642 451.628151680658 586.7018398937797 447.12451171875 591.8251953125 C444.7729943646991 594.5037749643456 442.5607855627892 597.2518775011721 440.41357421875 600.0986328125 C437.85181174864044 603.4648134495521 435.07408740760206 606.3644261367284 432.02685546875 609.2900390625 C429.98121712599425 611.415550485884 428.2555938147119 613.683977582807 426.47607421875 616.0361328125 C422.769809626968 620.7827523774138 418.595996227937 624.3866488314628 413.83935546875 628.0556640625 C411.10022554398734 630.262526587832 408.68518715485766 632.6490919489595 406.22607421875 635.1611328125 C401.1701091140294 639.8586065039274 395.6120727556438 643.8930694605019 390.07373046875 647.9970703125 C387.8426946414981 649.6925351249795 385.74184654541955 651.4131837759352 383.66357421875 653.2861328125 C380.06886030099696 656.4610261267198 376.0514744001759 658.8571611358097 371.97998046875 661.3720703125 C369.43200867544994 663.0273484420482 367.1310708433548 664.7935176263466 364.78857421875 666.7236328125 C360.5582868982566 670.1229708378964 356.0566846218266 672.264367953977 351.16748046875 674.5712890625 C348.2666053236208 676.1392255619257 346.16211891234286 677.8320923754397 343.72607421875 680.0361328125 C338.3682928213182 684.595022980493 332.35060687498725 686.7823434041055 325.79638671875 689.10791015625 C321.09734774734625 690.8199415350493 317.2095338591259 692.7599513782311 313.09326171875 695.6181640625 C306.3310540887246 700.0824937325906 299.0383176525607 701.8389883254594 291.28857421875 703.7861328125 C288.5263921869028 704.4961223521733 285.7676230443621 705.2180584476206 283.01123046875 705.9501953125 C282.3443571472168 706.1263034057617 281.67748382568357 706.3024114990235 280.9904022216797 706.4838562011719 C275.7092849141457 707.92406104436 270.79915286989257 709.9087344170207 265.793701171875 712.09912109375 C260.57538823818874 714.257499078112 255.17335766320002 714.8901121553438 249.6174337863922 715.7774932384491 C248.03749671104583 716.0309584198525 246.4580506297558 716.287505535838 244.8791425228119 716.5473034381866 C232.07152926282214 718.63548456243 219.6613271357096 719.5986995157625 206.6953125 719.54931640625 C204.85137626457333 719.5533973186909 203.0074424819109 719.5587475841544 201.16351318359375 719.5652465820313 C196.23049684160338 719.5787321996766 191.29767209980434 719.5737042391369 186.36465311050415 719.5641093254089 C181.1736699367405 719.5564300900925 175.98270145328473 719.5635794961534 170.79171752929688 719.5682678222656 C162.09581597512016 719.5736947814552 153.39999138785043 719.5666076229274 144.7041015625 719.55224609375 C134.66254637375806 719.5358533555935 124.62117333458181 719.5412682176411 114.57962238788605 719.5577253103256 C105.92266982846257 719.5713420371919 97.26577201836196 719.573261077858 88.60881221294403 719.5654093027115 C83.45289358268002 719.560743058559 78.29706067254742 719.5600805248771 73.14114761352539 719.5700187683105 C68.3063908317529 719.5786914054033 63.47186972107582 719.5726611516518 58.63713836669922 719.5553359985352 C56.86625179068673 719.5513758556066 55.09534530991937 719.5524971072665 53.324466705322266 719.5591239929199 C50.90396192561428 719.5673465377105 48.484208391847744 719.5570107273785 46.063751220703125 719.5420837402344 C45.71535928308964 719.5454298228026 45.71535928308964 719.5454298228026 43.952284932136536 719.5623630285263 C38.95350775671875 719.5027369752748 35.596677184668295 718.420527882591 31.22607421875 716.1611328125 C29.22607421875 713.8486328125 29.22607421875 713.8486328125 28.22607421875 711.1611328125 C28.581288511958718 706.4989452141356 29.727340919222513 703.9572539365445 32.72607421875 700.4111328125 C33.45439453124999 699.5474609375 34.182714843750006 698.6837890625 34.93310546875 697.7939453125 C35.68978515625 696.9251171875 36.44646484374999 696.0562890625 37.22607421875 695.1611328125 C37.91056640625001 694.3541796875 38.59505859375 693.5472265625 39.30029296875 692.7158203125 C47.99008117558287 682.7249732429066 57.67585274942621 674.0982825876945 68.37451171875 666.3212890625 C72.12317084734013 663.4815513938557 75.53406671533028 660.3402220209346 78.98388671875 657.1494140625 C80.89915302314807 655.4510333152202 82.78709598583521 654.0115594605923 84.91357421875 652.5986328125 C88.42876632610219 650.2248442600057 90.88102619264652 647.1884717428377 93.59716796875 643.9619140625 C97.2120222493279 639.9656363086717 101.29141837128253 638.3225617278251 106.578369140625 638.03173828125 C109.5235282858579 638.0279080696353 112.46842336981422 638.0252450089919 115.41357421875 638.0361328125 C116.37843749999999 638.032265625 117.34330078125001 638.0283984375 118.33740234375 638.0244140625 C125.90090319417703 638.0338861988187 133.43637709851998 638.3253772959519 140.99169921875 638.6533203125 C153.92512953774093 639.2026072071777 166.844111441672 639.4029372921808 179.78857421875 639.4111328125 C180.34965377807617 639.4116363525391 180.34965377807617 639.4116363525391 183.18905639648438 639.4141845703125 C197.0135155142783 639.4058498637364 210.76896704615154 639.2077132838814 224.53857421875 637.9111328125 C225.13802856445312 637.8565087890624 225.13802856445312 637.8565087890624 228.171630859375 637.580078125 C240.61837541977144 636.2250642875799 252.27422444376407 632.5686287035685 264.08154296875 628.5009765625 C267.1215732585454 627.4856437466935 270.1793995328288 626.613354587017 273.27685546875 625.7900390625 C283.22389562291386 623.1416180211793 292.17771929147017 620.1039315374189 301.24951171875 615.2314453125 C304.81301967311055 613.3250492604188 308.46444668082125 611.7293976185772 312.185302734375 610.156982421875 C319.26500683864714 607.1610167572494 325.43080231223 604.0150564553841 331.51123046875 599.2275390625 C334.6886968919021 596.8090070655971 338.0182454402935 594.7551129454547 341.41357421875 592.6611328125 C346.3512645536699 589.5742483262206 350.48283859751683 586.2627664244059 354.44091796875 581.9853515625 C356.23554252306167 580.1514573242865 358.06342077248496 578.7533633023564 360.16357421875 577.2861328125 C364.4482846588011 574.2135997857443 367.68945038358777 570.4372849376099 371.13232421875 566.4697265625 C372.81341259320686 564.6161384481269 374.36268290819186 563.1471380206565 376.35107421875 561.6611328125 C379.7551061210121 558.7011050714026 381.9059525621033 555.4475981562595 384.31982421875 551.6611328125 C386.2252750984207 549.1621808391614 388.32065517992436 547.4719530558095 390.76318359375 545.52294921875 C393.2385353018926 543.2186248148749 394.6908389686322 540.3138346303145 396.22607421875 537.3486328125 C398.3979038912622 533.340539592432 400.5675459536717 529.4887878809403 403.41357421875 525.9111328125 C406.7498181738773 521.6732013019329 408.9386184421206 517.0238210602379 411.22607421875 512.1611328125 C412.0313034888645 510.4701513452595 412.8437814530141 508.78260202874094 413.66357421875 507.0986328125 C414.01291015625 506.36515625 414.36224609374995 505.6316796875 414.72216796875 504.8759765625 C416.06721094588806 502.4479119674066 417.5374246548878 500.3250652566131 419.14794921875 498.0712890625 C422.6284552856674 492.9120446447144 424.2897590070012 487.5894166787547 426.03857421875 481.6611328125 C428.3108870049148 474.29693006534956 430.73262997756797 467.9093343802548 434.85107421875 461.4111328125 C440.6622602034465 451.8156611643258 441.5230396585837 440.57001009413136 443.1201171875 429.67529296875 C444.39460955365894 421.0037949610019 445.9106972049425 412.69135436489285 448.47607421875 404.2861328125 C451.653582232864 393.67594012643843 452.7214690837802 383.19880189093925 453.22607421875 372.1611328125 C453.28537109375 370.9339453125 453.34466796874995 369.7067578125 453.40576171875 368.4423828125 C453.47957480616606 364.9977720664163 453.38751890245396 361.6028399332801 453.22607421875 358.1611328125 C453.213505859375 357.8071240234375 453.213505859375 357.8071240234375 453.14990234375 356.015625 C452.56154233655 341.68485625320153 449.64297050453195 328.0425289718937 446.389892578125 314.13134765625 C444.63141783036315 306.59041677782807 442.9626613726118 299.0733099754407 441.68310546875 291.4345703125 C441.5660877990723 290.7387232971191 441.4490701293945 290.0428762817383 441.32850646972656 289.32594299316406 C441.27079826354975 288.9824858856201 441.27079826354975 288.9824858856201 440.978759765625 287.244384765625 C438.729844620181 273.8754913831254 435.37663142865836 262.37240730960986 429.22314453125 250.27490234375 C427.6611899219622 246.9635891686241 426.59770712782495 243.53427981001698 425.53857421875 240.0361328125 C423.55275744216806 233.7522468482475 420.92581633995985 228.59306971819493 417.22607421875 223.1611328125 C416.2254964857981 221.6823568902932 415.22549398749175 220.20319158241279 414.22607421875 218.7236328125 C413.73107421875 217.9953125 413.23607421875 217.2669921875 412.72607421875 216.5166015625 C411.07451230618585 213.92313324667657 409.652691463398 211.25933708418495 408.22607421875 208.5361328125 C406.08589516346717 204.51215031793168 403.7985080616819 201.3554607517832 400.71435546875 198.0322265625 C398.8939291027916 195.74355404466775 397.7163280586889 193.33990705303836 396.41357421875 190.7236328125 C393.81712784482147 185.7538721749024 390.8786730136078 182.77133082166438 386.57763671875 179.2470703125 C383.9881231235874 176.95005991413316 381.93789804163805 174.49747063854605 379.78857421875 171.7861328125 C373.2619938433135 163.6052456057897 366.3918928339196 156.67859824512453 357.66748046875 150.8759765625 C354.32607677748877 148.5289746097581 351.39018723524316 145.82106022196555 348.38232421875 143.0673828125 C345.7448409755167 140.73569472790246 342.9451240326074 138.70785942911692 340.09326171875 136.6494140625 C338.2252327058776 135.16046206688415 336.7923620632058 133.58371186714749 335.22607421875 131.7861328125 C331.24021080540365 127.61658905752478 326.325592062198 125.56293634327318 321.18408203125 123.139892578125 C317.37615226916705 121.32048021020846 314.1627555158333 119.53961853012665 310.97607421875 116.7236328125 C305.8435136161811 112.37535129620372 299.72010740479925 110.07725839984143 293.60009765625 107.440185546875 C289.08284189242477 105.48419528089515 284.85708152898695 103.49311809059024 280.72607421875 100.7861328125 C274.2494720143264 96.70744215089066 267.09221922411894 95.72261445713299 259.68310546875 94.2705078125 C258.8677734375 94.11058349609375 258.05244140625 93.9506591796875 257.21240234375 93.785888671875 C255.50703611656678 93.45151274591292 253.80130234316806 93.11900616285061 252.09521484375 92.788330078125 C245.1468346258219 91.41470682880694 238.32041662134083 89.7056292374453 231.493408203125 87.82373046875 C230.75807861328127 87.6218310546875 230.02274902343748 87.419931640625 229.26513671875 87.2119140625 C228.6278564453125 87.03313720703125 227.99057617187498 86.8543603515625 227.333984375 86.670166015625 C221.61212668094834 85.28841094357291 215.93527812485104 84.88128151418248 210.07867431640625 84.60771179199219 C209.1997584748268 84.56561134040356 208.32084263324737 84.52351088881493 207.41529297828674 84.48013466596603 C198.13768558968087 84.06655039466692 188.86970938658123 84.0128235314322 179.58447265625 84.015869140625 C177.71588068116301 84.01286605838352 175.84728931678563 84.00946095668361 173.97869873046875 84.00569152832031 C168.97070065127502 83.99697070293401 163.9627197170957 83.99451871644554 158.95471477508545 83.99387574195862 C155.8140082300469 83.99315917060767 152.6733058915337 83.99101367597902 149.53260040283203 83.98837852478027 C138.54337797377985 83.97916932561238 127.55416756748434 83.97503864057077 116.56494140625 83.975830078125 C106.36968818034941 83.9764318370865 96.17448768843377 83.96584934157211 85.97924780845642 83.950086414814 C77.17696631652095 83.93696859635116 68.3747020012112 83.93164785470985 59.57241082191467 83.93228548765182 C54.33627723761103 83.93253893480403 49.10019079384719 83.92977215184065 43.86406707763672 83.91910743713379 C38.94235088176174 83.90935282059573 34.02072627448865 83.9093971710068 29.09900665283203 83.91662406921387 C27.30609501560943 83.91766034084056 25.513177434374313 83.91536485229481 23.72027587890625 83.90926361083984 C-10.436363729784688 83.80066021525941 -10.436363729784688 83.80066021525941 -22.14892578125 92.4111328125 C-32.26589723903251 103.0098648158912 -32.19330857787614 118.5977305803858 -31.97705078125 132.3994140625 C-31.888034805416652 135.36998732960748 -31.661353869102356 138.25937253421623 -31.27001953125 141.2041015625 C-30.401385552770748 148.48344347834023 -30.579135554367355 155.8410249999178 -30.58642578125 163.1611328125 C-30.586033020019528 164.00051391601562 -30.585640258789056 164.83989501953124 -30.585235595703125 165.7047119140625 C-30.600603909514447 193.83461192599884 -31.568089915223382 222.03750053908374 -33.15370178222656 250.1221466064453 C-34.72677501593432 278.53589066148953 -34.86193930404211 306.9895917065905 -34.83642578125 335.4384765625 C-34.83578376770019 336.1554019212723 -34.835141754150385 336.87232728004454 -34.83448028564453 337.6109776496887 C-34.82350059682123 348.77354813599914 -34.79953001495325 359.93608794663817 -34.77392578125 371.0986328125 C-34.75159433499137 380.8536110289058 -34.731110964027366 390.6085778734662 -34.72050762176514 400.36357694864273 C-34.716448624627176 403.87346831196834 -34.71039975255049 407.3833267710325 -34.698760986328125 410.89320182800293 C-34.651887379666974 425.81059105400897 -34.76853435551979 440.71000054050126 -35.21533203125 455.620361328125 C-35.254321136474616 456.9392356014252 -35.29331024169922 458.25810987472533 -35.33348083496094 459.6169500350952 C-35.595161738651896 467.6289013679626 -36.02033933140717 475.61646334170257 -36.560627937316895 483.6134204864502 C-36.86706526453253 488.71029096051655 -36.93582584509268 493.79460551969095 -36.94189453125 498.8994140625 C-36.9452229309082 499.9128739929199 -36.9485513305664 500.9263339233398 -36.95198059082031 501.9705047607422 C-36.95697416793277 504.0749771517702 -36.95939131274028 506.1794572376714 -36.959228515625 508.283935546875 C-36.961453113778475 511.51331053300055 -36.9797897830024 514.7423631143913 -36.99853515625 517.9716796875 C-37.001463128149624 520.0309233238103 -37.003451904647505 522.0901685603418 -37.00439453125 524.1494140625 C-37.00798728942871 524.6306095123291 -37.00798728942871 524.6306095123291 -37.02616882324219 527.0657501220703 C-37.02463050842286 527.5103029632569 -37.02463050842286 527.5103029632569 -37.016845703125 529.760009765625 C-37.01827072143554 530.5400386047363 -37.0196957397461 531.3200674438476 -37.02116394042969 532.1237335205078 C-36.77392578125 534.1611328125 -36.77392578125 534.1611328125 -34.77392578125 537.1611328125 C-22.45426338976506 536.7082040481072 -16.838656722105554 533.5640524576172 -8.42236328125 524.73388671875 C-4.43332946431434 520.6176772656053 -0.25373046338734184 517.5908865919895 4.75341796875 514.7587890625 C7.663181612669121 512.8787048123216 9.811099410349442 510.6396595895427 12.22607421875 508.1611328125 C14.018617825703842 506.63734028490023 15.831512488918065 505.13717687284685 17.66357421875 503.6611328125 C18.622636718749987 502.8825390625 19.581699218750003 502.1039453125 20.56982421875 501.3017578125 C22.08731027317748 500.0788425804026 23.606821227541417 498.8584077317396 25.13232421875 497.6455078125 C27.390507208278564 495.8251358107372 29.249543564331333 494.12928155778246 30.97607421875 491.7861328125 C33.220404104018 489.167747946354 35.23872185740507 487.73265876974347 38.10107421875 485.8486328125 C41.4628075186603 483.5895870681481 43.82323708482005 481.6731072148306 46.03857421875 478.2861328125 C49.38747355853647 473.3301467205746 54.16577824839345 470.5191798040018 59.10498046875 467.3369140625 C62.19168817674233 465.1851040583051 64.59214333966784 462.8336090215199 67.22607421875 460.1611328125 C68.82389895957408 459.01799453329306 70.44914787507727 457.912093381989 72.10107421875 456.8486328125 C75.3318019696909 454.6428581638313 77.9098448055801 452.5876695789624 80.35107421875 449.5361328125 C84.37049890726752 444.6171225984571 89.29884035328263 440.88680156525896 94.248779296875 436.955322265625 C97.97631255208631 433.99429463168934 101.57066111465687 430.9908710172604 105.03857421875 427.7236328125 C108.89482242945184 424.2139308081136 113.04267460054038 421.8940907094587 117.67529296875 419.5361328125 C119.91224268900032 418.3303038668214 121.7066424968383 417.0734602055957 123.66357421875 415.4736328125 C130.71656149329652 410.2578941953022 141.14918446047557 409.7734738352743 149.57861328125 408.475341796875 C168.59890563592649 405.53318010800905 195.74260501519933 400.7256673957334 209.01513671875 385.0478515625 C217.1961254192887 372.56659957065244 220.25398280746424 357.5989001163203 217.49169921875 343.0126953125 C214.50637836173212 329.0015463686379 208.78227481535765 321.5345445704023 197.22607421875 313.1611328125 C191.65601991052455 309.5516719942096 186.063021618949 309.3793743014593 179.60107421875 308.9736328125 C178.41771484375 308.894677734375 177.23435546874998 308.81572265625 176.01513671875 308.734375 C164.0928820527066 308.0430996918032 152.16580695247427 307.94526903296634 140.22607421875 307.9111328125 C139.7500375366211 307.9084992980957 139.7500375366211 307.9084992980957 137.34100341796875 307.8951721191406 C127.0719644050528 307.8512438333819 117.3262780718155 308.10533910789377 107.22607421875 310.1611328125 C99.367282078753 311.08779311018674 94.0493059235217 310.2583111120135 87.28466796875 306.0595703125 C83.24536620786347 302.3345216297849 82.09475533593115 298.5434090643236 81.74951171875 293.1923828125 C81.68622150111668 291.34905522392927 81.63708101398075 289.5051951111036 81.60107421875 287.6611328125 C81.5496420379994 285.8172891325912 81.49503783441438 283.97353076019965 81.43701171875 282.1298828125 C81.41944824218751 281.31970703125 81.401884765625 280.50953125 81.3837890625 279.6748046875 C81.22607421875 277.1611328125 81.22607421875 277.1611328125 80.7255859375 274.27099609375 C79.8877805071264 269.0549816401337 80.00124757780435 263.82358994885027 79.98583984375 258.55029296875 C79.97620146531091 256.5623774156863 79.94503123186604 254.57460407876948 79.91357421875 252.5869140625 C79.86563028682417 240.6129170640271 81.06382668205603 229.4668836272815 89.22607421875 220.1611328125 C95.88266400339458 214.3727938693308 102.83429976365602 214.79665036460554 111.22607421875 215.1611328125 C114.45433386043268 215.5179581743544 117.66783431434104 215.93807560411528 120.885986328125 216.374755859375 C133.98324637850385 218.10232269683263 147.09481718035772 218.20775075403566 160.28857421875 218.1611328125 C163.88314345525072 218.16184639824044 167.4776992959239 218.1648981813062 171.072265625 218.16943359375 C173.68143607414072 218.16256629267625 176.2856796740782 218.11912320813076 178.89404296875 218.0634765625 C189.25898300674902 218.03907985769123 198.93057699072295 220.66160825534652 208.85107421875 223.4111328125 C209.55292846679686 223.60327362060548 210.25478271484377 223.79541442871093 210.9779052734375 223.99337768554688 C218.67925477462467 226.12901853975097 225.76094689044174 228.325611136064 232.22607421875 233.1611328125 C233.07814453125002 233.734765625 233.93021484374998 234.3083984375 234.80810546875 234.8994140625 C237.28492789992032 236.6475041496482 239.75597218704138 238.403560213015 242.22607421875 240.1611328125 C243.13873046875 240.791484375 244.05138671875 241.4218359375 244.99169921875 242.0712890625 C250.55870818012312 245.9821906093864 255.40840800910416 250.10722476405996 260.11279296875 255.0205078125 C262.06299897921906 256.99594754214337 264.074236992502 258.7249998002432 266.22607421875 260.4736328125 C273.40697376809914 266.6389071267818 278.6539519533823 274.996638818598 283.7392578125 282.912109375 C284.64941075397184 284.2888464680769 285.59396035894565 285.6444883036087 286.593505859375 286.957763671875 C291.52354295004386 293.62821337419723 294.035176374013 300.9933850703961 296.69580078125 308.76220703125 C297.4739524055294 311.0299492804798 298.2741541914811 313.2889766918815 299.07763671875 315.5478515625 C310.11127093019496 346.9441087987942 305.81053373048644 375.7201889110611 292.21728515625 405.36083984375 C290.33301021783785 409.2783406492655 288.3240692888718 412.5923947555812 285.47607421875 415.9111328125 C282.507138251038 419.48697834267244 279.9069120633279 423.1143734922809 277.41357421875 427.0361328125 C274.0756845876417 432.15818041210997 270.3475679910476 436.52551170505234 266.150390625 440.935302734375 C263.60595152879284 443.6154983134698 261.34708179621657 446.2821244743861 259.28857421875 449.3486328125 C256.10846005116167 453.7915749248987 251.84967370283073 456.6666206430617 247.42138671875 459.7900390625 C244.95193050220604 461.62250840656134 242.91977947955132 463.40822944405295 240.71826171875 465.5166015625 C235.2922473902198 470.32587658089614 228.77960761548758 472.99826147740157 222.22607421875 475.9111328125 C220.98073255384764 476.4789384881815 219.73593674022442 477.0479429318558 218.49169921875 477.6181640625 C209.87218856726656 481.5302381028192 201.70537328984545 485.2167647452082 192.28857421875 486.6611328125 C191.53423095703124 486.7843994140625 190.77988769531248 486.907666015625 190.002685546875 487.03466796875 C185.33062744641234 487.77027059455054 180.6563243672967 488.34742650321186 175.95263671875 488.8408203125 C160.23241206181171 490.4948992193373 148.27241488010964 492.7579212414823 135.22607421875 502.1611328125 C133.7557000250602 503.1329026083296 132.27682739928392 504.09197219259136 130.78857421875 505.0361328125 C130.15048828125 505.4460546875 129.51240234375 505.8559765625 128.85498046875 506.2783203125 C127.22607421875 507.1611328125 127.22607421875 507.1611328125 125.22607421875 507.1611328125 C124.97083984375001 507.7528125 124.71560546875 508.3444921875 124.45263671875 508.9541015625 C123.10051613158913 511.38705739608565 121.73073964723113 512.6960833811581 119.60107421875 514.4736328125 C118.89080078125 515.0769140625 118.18052734374999 515.6801953125 117.44873046875 516.3017578125 C116.71525390625001 516.9153515625 115.98177734375 517.5289453125 115.22607421875 518.1611328125 C107.81708804363478 524.4145890336982 107.81708804363478 524.4145890336982 104.85107421875 528.1611328125 C102.46426251735846 530.8889176140904 100.51453173229942 532.4302466292976 97.53857421875 534.4111328125 C92.66852545835837 537.6794766472517 88.79999979517791 541.4678778981477 84.73779296875 545.6767578125 C81.53685096846499 548.8428528547726 78.07294525498014 551.5467947999185 74.51904296875 554.3017578125 C72.46324250720795 555.9688123605307 70.66813342937064 557.6803814424501 68.85107421875 559.5986328125 C65.00311527854635 563.6016043166455 60.54660545417505 566.6944908411591 56.07763671875 569.9658203125 C53.085275852152336 572.2695282673327 50.58053560235058 574.7469481738018 47.99951171875 577.4853515625 C45.89406617450527 579.4748584754537 43.63705988709003 580.9949291322077 41.22607421875 582.5986328125 C37.89793845010038 584.8407453303271 35.32139406296881 586.9887916608453 32.78857421875 590.0986328125 C29.390009827666432 594.2471151678133 25.44336659428876 597.0305061744352 21.06591796875 600.0869140625 C16.478883532432462 603.4372789671556 12.394075389752487 607.3121113229518 8.22607421875 611.1611328125 C1.5730968060190662 617.1611328125 1.5730968060190662 617.1611328125 -0.77392578125 617.1611328125 C-0.77392578125 617.8211328125 -0.77392578125 618.4811328125 -0.77392578125 619.1611328125 C-2.2675781250001563 620.4387207031251 -2.2675781250001563 620.4387207031251 -4.35986328125 621.8837890625 C-4.740418701171876 622.1508666992188 -4.740418701171876 622.1508666992188 -6.666259765625 623.50244140625 C-7.4855395507812545 624.0704345703125 -8.304819335937495 624.638427734375 -9.14892578125 625.2236328125 C-15.322620525103403 629.5758081590382 -20.992553531318705 633.994547846558 -26.48095703125 639.1806640625 C-29.78489644562916 642.0343221256861 -33.4564741768513 644.151808243539 -37.18017578125 646.4111328125 C-40.51460668603856 648.6608693265742 -43.072125205626335 651.3446309785376 -45.81689453125 654.2626953125 C-47.82784659731429 656.2134392328737 -49.83963722057287 657.6157529179143 -52.21142578125 659.0986328125 C-56.61706257695886 661.8767577335054 -59.976436673802084 665.2440812250193 -63.57080078125 668.9892578125 C-66.21474292256859 671.5956972284098 -69.06882489483796 673.6842750364914 -72.08251953125 675.8369140625 C-73.77392578124997 677.1611328125 -73.77392578124997 677.1611328125 -75.64892578125 679.5986328125 C-77.8290916454043 682.2276563545685 -79.81101447478267 683.6070304353295 -82.64892578125 685.4736328125 C-86.90563105974732 688.3281292933747 -89.66713536084464 691.160039794137 -92.42236328125 695.4619140625 C-94.02978707408957 697.4828081373128 -95.37324677901984 698.2463673126173 -97.77392578125 699.1611328125 C-102.0111138914487 699.1611328125 -103.4289820862033 698.4903972486809 -106.52392578125 695.5361328125 C-113.3609102745973 686.2448461933358 -111.95404554269997 672.4212345143018 -111.6494140625 661.422119140625 C-111.57567319102343 656.550675953012 -111.90442707555923 651.8314622141584 -112.49131870269775 646.9933605194092 C-114.15373708303824 632.8289736082536 -114.0083987456701 618.7072758997098 -113.93408203125 604.4658203125 C-113.92652855755836 601.702812644068 -113.92240453717362 598.9398030299511 -113.91831970214844 596.1767883300781 C-113.90575026111941 588.9299701374997 -113.88075997345888 581.6832359103561 -113.85296630859375 574.4364624023438 C-113.80643436855107 562.2530673991662 -113.77372080137839 550.0696222952067 -113.75059390068054 537.8861613273621 C-113.74791171156988 536.4769359487807 -113.74510929895129 535.0677107940656 -113.7421886920929 533.6584858894348 C-113.70651839900358 516.086645212338 -113.7981396162632 498.5323135418273 -114.31293106079102 480.9670715332031 C-114.79149557110033 464.48028428733494 -114.91981427322831 447.9947164622896 -115.00803828239441 431.5021481513977 C-115.02000040892801 429.2818695879142 -115.03249984084474 427.06159467791537 -115.04516792297363 424.8413200378418 C-115.11857618115069 411.93765069931817 -115.18658683292355 399.0339518764645 -115.24103170633316 386.1301876306534 C-115.28232212674791 376.3461666411951 -115.33122223008439 366.56222242192166 -115.39501953125 356.7783203125 C-115.39737275481224 356.4158419013023 -115.39737275481224 356.4158419013023 -115.40928149223328 354.5814814567566 C-115.55858293655452 332.3368161552579 -116.14710421412124 310.1615940819512 -117.54991149902344 287.95806884765625 C-118.18401107909418 277.2103811488291 -118.45287661862318 266.4463701374917 -118.71209716796875 255.684326171875 C-118.78067996190299 252.8854982338281 -118.85379615404256 250.08680304113142 -118.9267578125 247.2880859375 C-119.8928551893593 209.4242009056402 -119.68182131229625 171.6461594512988 -118.92236328125 133.7841796875 C-118.80737806076309 128.0252167851758 -118.7111265542726 122.26630712361164 -118.62905883789063 116.50679016113281 C-118.57565431872104 112.88344453608477 -118.51092252405228 109.26038075674273 -118.44207763671875 105.63729858398438 C-118.41404283358926 104.0691934819234 -118.39008875042722 102.50100820163532 -118.37091064453125 100.93276977539063 C-118.15542293122498 84.18806563241023 -115.43464679611128 59.86937344486597 -104.01611328125 46.5556640625 C-102.1656919400969 44.76826797138618 -100.26238210946106 43.033361162517345 -98.30126953125 41.3681640625 C-95.81949005574806 39.20092232577883 -94.38054082288181 37.28701369003804 -92.71142578125 34.4736328125 C-89.95019481700373 30.02718065804038 -86.53941623484764 27.226905440949345 -82.36376953125 24.1181640625 C-79.77392578125 22.161132812499993 -79.77392578125 22.161132812499993 -77.71533203125 20.2353515625 C-69.67920475032774 12.877502914462921 -59.48453495655194 9.358939058285848 -49.521240234375 5.292724609375 C-47.502737056320086 4.461323007110315 -45.51076215170396 3.5647586377976133 -43.53669548034668 2.6327476501464844 C-39.942107960309016 1.0991965378270825 -36.74747295261355 0.6703596894080377 -32.822296142578125 0.48370361328125 C-32.482032914757724 0.4671785700321198 -32.482032914757724 0.4671785700321198 -30.76009476184845 0.38355183601379395 C-20.51486713028585 -0.055663572488819035 -10.252286492005823 0.004736657877406625 0 0 Z " fill="url(#dinoGold)" transform="translate(122.77392578125,2.8388671875)"/>
</svg>